<svg width="278" height="179" viewBox="0 0 278 179" fill="none" xmlns="http://www.w3.org/2000/svg">
<path d="M72.0918 179C61.0918 179 51.1751 176.75 42.3418 172.25C33.5085 167.583 25.9251 161.25 19.5918 153.25C13.4251 145.25 8.67513 135.833 5.3418 125C2.00846 114 0.341797 102.167 0.341797 89.5C0.341797 76.8333 2.00846 65.0833 5.3418 54.25C8.67513 43.25 13.4251 33.75 19.5918 25.75C25.9251 17.75 33.5085 11.5 42.3418 7C51.1751 2.33333 61.0918 0 72.0918 0C83.0918 0 93.0085 2.33333 101.842 7C110.675 11.5 118.175 17.75 124.342 25.75C130.675 33.75 135.508 43.25 138.842 54.25C142.175 65.0833 143.842 76.8333 143.842 89.5C143.842 102.167 142.175 114 138.842 125C135.508 135.833 130.675 145.25 124.342 153.25C118.175 161.25 110.675 167.583 101.842 172.25C93.0085 176.75 83.0918 179 72.0918 179ZM72.0918 148C78.0918 148 83.5085 146.583 88.3418 143.75C93.1751 140.75 97.2585 136.667 100.592 131.5C104.092 126.167 106.675 119.917 108.342 112.75C110.175 105.583 111.092 97.8333 111.092 89.5C111.092 81 110.175 73.25 108.342 66.25C106.675 59.0833 104.092 52.9167 100.592 47.75C97.2585 42.4167 93.1751 38.3333 88.3418 35.5C83.5085 32.5 78.0918 31 72.0918 31C65.9251 31 60.4251 32.5 55.5918 35.5C50.7585 38.3333 46.6751 42.4167 43.3418 47.75C40.0085 52.9167 37.4251 59.0833 35.5918 66.25C33.9251 73.25 33.0918 81 33.0918 89.5C33.0918 97.8333 33.9251 105.583 35.5918 112.75C37.4251 119.917 40.0085 126.167 43.3418 131.5C46.6751 136.667 50.7585 140.75 55.5918 143.75C60.4251 146.583 65.9251 148 72.0918 148Z" fill="#F5F5F5"/>
<path d="M163.928 175V145.25C173.761 135.583 182.844 126.583 191.178 118.25C194.678 114.75 198.261 111.167 201.928 107.5C205.594 103.833 209.011 100.417 212.178 97.25C215.344 94.0833 218.178 91.25 220.678 88.75C223.178 86.0833 225.094 84 226.428 82.5C229.094 79.3333 231.428 76.5 233.428 74C235.594 71.5 237.261 69.0833 238.428 66.75C239.761 64.25 240.761 61.8333 241.428 59.5C242.094 57 242.428 54.3333 242.428 51.5C242.428 46 240.261 41.25 235.928 37.25C231.594 33.0833 225.678 31 218.178 31C210.678 31 204.844 33.1667 200.678 37.5C196.511 41.6667 193.678 46.4167 192.178 51.75L162.428 39.5C163.761 35 165.928 30.4167 168.928 25.75C171.928 20.9167 175.761 16.6667 180.428 13C185.094 9.16668 190.594 6.08334 196.928 3.75C203.428 1.25 210.678 0 218.678 0C227.344 0 235.178 1.33334 242.178 4.00001C249.178 6.50001 255.094 10 259.928 14.5C264.761 19 268.511 24.3333 271.178 30.5C273.844 36.5 275.178 43 275.178 50C275.178 60.6667 272.511 70.5 267.178 79.5C262.011 88.3333 255.678 96.5833 248.178 104.25L226.678 125.75C221.011 131.417 214.594 137.75 207.428 144.75L208.428 146.25H277.678V175H163.928Z" fill="#F5F5F5"/>
</svg>
