<svg width="18" height="18" viewBox="0 0 18 18" fill="none" xmlns="http://www.w3.org/2000/svg">
<path fill-rule="evenodd" clip-rule="evenodd" d="M9.75 9.75C9.75 10.164 9.414 10.5 9 10.5C8.586 10.5 8.25 10.164 8.25 9.75V6C8.25 5.586 8.586 5.25 9 5.25C9.414 5.25 9.75 5.586 9.75 6V9.75ZM9 12.75C8.586 12.75 8.25 12.414 8.25 12C8.25 11.586 8.586 11.25 9 11.25C9.414 11.25 9.75 11.586 9.75 12C9.75 12.414 9.414 12.75 9 12.75ZM9 1.5C4.85775 1.5 1.5 4.85775 1.5 9C1.5 13.1423 4.85775 16.5 9 16.5C13.1423 16.5 16.5 13.1423 16.5 9C16.5 4.85775 13.1423 1.5 9 1.5Z" fill="#BD3232"/>
<mask id="mask0" mask-type="alpha" maskUnits="userSpaceOnUse" x="1" y="1" width="16" height="16">
<path fill-rule="evenodd" clip-rule="evenodd" d="M9.75 9.75C9.75 10.164 9.414 10.5 9 10.5C8.586 10.5 8.25 10.164 8.25 9.75V6C8.25 5.586 8.586 5.25 9 5.25C9.414 5.25 9.75 5.586 9.75 6V9.75ZM9 12.75C8.586 12.75 8.25 12.414 8.25 12C8.25 11.586 8.586 11.25 9 11.25C9.414 11.25 9.75 11.586 9.75 12C9.75 12.414 9.414 12.75 9 12.75ZM9 1.5C4.85775 1.5 1.5 4.85775 1.5 9C1.5 13.1423 4.85775 16.5 9 16.5C13.1423 16.5 16.5 13.1423 16.5 9C16.5 4.85775 13.1423 1.5 9 1.5Z" fill="white"/>
</mask>
<g mask="url(#mask0)">
<rect width="18" height="18" fill="#BD3232"/>
</g>
</svg>
