<svg width="181" height="181" viewBox="0 0 181 181" fill="none" xmlns="http://www.w3.org/2000/svg">
<g filter="url(#filter0_f)">
<ellipse cx="91.2666" cy="142.078" rx="35.5" ry="8.07784" fill="black" fill-opacity="0.08"/>
</g>
<g opacity="0.05" filter="url(#filter1_f)">
<rect x="40" y="40" width="100.841" height="100.841" rx="16.9611" fill="black"/>
</g>
<rect x="40" y="40" width="100.841" height="100.841" rx="16.9611" fill="white"/>
<g clip-path="url(#clip0)">
<path d="M70.3429 85.7204C70.3429 86.5117 70.106 87.3233 69.6322 88.1552C69.1585 88.9872 69.1134 89.3454 68.0629 89.6497C69.4018 89.8526 69.7043 90.6611 70.4047 91.6553C71.105 92.6496 71.4552 93.7148 71.4552 94.8511C71.4552 96.5757 70.8887 98.0468 69.7558 99.2642C68.623 100.461 66.8515 101.06 64.4416 101.06H55.1108V80.0898H63.8237C65.8011 80.0898 67.3768 80.6072 68.5509 81.6421C69.7455 82.6769 70.3429 84.0363 70.3429 85.7204ZM60.3015 88.1857H63.0822C63.6177 88.1857 64.0503 88.0335 64.3798 87.7291C64.7094 87.4045 64.8742 86.9784 64.8742 86.4509C64.8742 85.1726 64.2974 84.5334 63.1439 84.5334H60.3015V88.1857ZM63.5765 92.3554H60.3015V96.6163H63.6074C64.3695 96.6163 64.9566 96.4033 65.3685 95.9772C65.7805 95.5511 65.9864 95.0438 65.9864 94.4554C65.9864 93.9076 65.7805 93.4206 65.3685 92.9945C64.9772 92.5684 64.3798 92.3554 63.5765 92.3554Z" fill="#FBB9FF"/>
<path d="M87.203 98.9288C85.389 100.35 83.2235 101.06 80.7066 101.06C78.1896 101.06 76.0128 100.35 74.1761 98.9288C72.3621 97.4882 71.4551 95.6332 71.4551 93.3638V80.3984H77.1692V93.3638C77.1692 94.2518 77.5207 94.982 78.2236 95.5543C78.9493 96.1266 79.7769 96.4127 80.7066 96.4127C81.6363 96.4127 82.4526 96.1266 83.1555 95.5543C83.8811 94.982 84.2439 94.2518 84.2439 93.3638V80.3984H89.9581V93.3638C89.9581 95.6332 89.0397 97.4882 87.203 98.9288Z" fill="#FBB9FF"/>
<path d="M120.026 80.3984H125.268V101.06H124.035L111.676 90.1125V101.06H108.924L106.732 98.2847V80.3984H108.153L120.026 91.0377V80.3984Z" fill="#FBB9FF"/>
<path d="M95.5872 101.06H90.5747V80.3984H99.1289C101.41 80.3984 103.161 81.0782 104.381 82.4376C105.602 83.7971 106.212 85.4164 106.212 87.2956C106.212 88.855 105.685 90.1125 104.922 91.494C104.081 92.7135 103.74 93.4133 102.139 93.8131L108.153 101.06H100.479L96.0374 94.1629H95.5872V101.06ZM98.8887 84.7767H95.5872V89.8446H98.8887C99.6492 89.8446 100.209 89.5947 100.569 89.0949C100.95 88.5951 101.14 87.9954 101.14 87.2956C101.14 86.596 100.95 86.0062 100.569 85.5264C100.209 85.0266 99.6492 84.7767 98.8887 84.7767Z" fill="#FBB9FF"/>
<path d="M89.536 97.1337C90.1324 96.0674 90.5749 94.7747 90.5749 94.1211L90.7291 101.06H89.4956V97.2868C89.4956 97.2331 89.5098 97.1805 89.536 97.1337Z" fill="#FBB9FF"/>
</g>
<defs>
<filter id="filter0_f" x="35.7666" y="114" width="111" height="56.1557" filterUnits="userSpaceOnUse" color-interpolation-filters="sRGB">
<feFlood flood-opacity="0" result="BackgroundImageFix"/>
<feBlend mode="normal" in="SourceGraphic" in2="BackgroundImageFix" result="shape"/>
<feGaussianBlur stdDeviation="10" result="effect1_foregroundBlur"/>
</filter>
<filter id="filter1_f" x="0" y="0" width="180.841" height="180.841" filterUnits="userSpaceOnUse" color-interpolation-filters="sRGB">
<feFlood flood-opacity="0" result="BackgroundImageFix"/>
<feBlend mode="normal" in="SourceGraphic" in2="BackgroundImageFix" result="shape"/>
<feGaussianBlur stdDeviation="20" result="effect1_foregroundBlur"/>
</filter>
<clipPath id="clip0">
<rect x="55.1108" y="80.0898" width="70.3114" height="20.9701" fill="white"/>
</clipPath>
</defs>
</svg>
