<svg width="182" height="181" viewBox="0 0 182 181" fill="none" xmlns="http://www.w3.org/2000/svg">
<g filter="url(#filter0_f)">
<ellipse cx="91.5" cy="142.078" rx="35.5" ry="8.07784" fill="black" fill-opacity="0.08"/>
</g>
<g opacity="0.05" filter="url(#filter1_f)">
<rect x="40.2334" y="40" width="100.841" height="100.841" rx="16.9611" fill="black"/>
</g>
<rect x="40.2334" y="40" width="100.841" height="100.841" rx="16.9611" fill="white"/>
<g clip-path="url(#clip0)">
<path d="M70.5763 85.7204C70.5763 86.5117 70.3394 87.3233 69.8656 88.1552C69.3919 88.9872 69.3468 89.3454 68.2963 89.6497C69.6352 89.8526 69.9377 90.6611 70.6381 91.6553C71.3384 92.6496 71.6886 93.7148 71.6886 94.8511C71.6886 96.5757 71.1221 98.0468 69.9892 99.2642C68.8564 100.461 67.0849 101.06 64.675 101.06H55.3442V80.0898H64.0571C66.0345 80.0898 67.6102 80.6072 68.7843 81.6421C69.9789 82.6769 70.5763 84.0363 70.5763 85.7204ZM60.5349 88.1857H63.3156C63.8511 88.1857 64.2837 88.0335 64.6132 87.7291C64.9428 87.4045 65.1076 86.9784 65.1076 86.4509C65.1076 85.1726 64.5308 84.5334 63.3773 84.5334H60.5349V88.1857ZM63.8099 92.3554H60.5349V96.6163H63.8408C64.6029 96.6163 65.19 96.4033 65.6019 95.9772C66.0139 95.5511 66.2198 95.0438 66.2198 94.4554C66.2198 93.9076 66.0139 93.4206 65.6019 92.9945C65.2106 92.5684 64.6132 92.3554 63.8099 92.3554Z" fill="#FBB9FF"/>
<path d="M87.4364 98.9288C85.6224 100.35 83.4569 101.06 80.94 101.06C78.423 101.06 76.2462 100.35 74.4095 98.9288C72.5955 97.4882 71.6885 95.6332 71.6885 93.3638V80.3984H77.4026V93.3638C77.4026 94.2518 77.7541 94.982 78.457 95.5543C79.1827 96.1266 80.0103 96.4127 80.94 96.4127C81.8697 96.4127 82.686 96.1266 83.3889 95.5543C84.1145 94.982 84.4773 94.2518 84.4773 93.3638V80.3984H90.1915V93.3638C90.1915 95.6332 89.2731 97.4882 87.4364 98.9288Z" fill="#FBB9FF"/>
<path d="M120.259 80.3984H125.502V101.06H124.268L111.909 90.1125V101.06H109.157L106.965 98.2847V80.3984H108.386L120.259 91.0377V80.3984Z" fill="#FBB9FF"/>
<path d="M95.8206 101.06H90.8081V80.3984H99.3623C101.643 80.3984 103.394 81.0782 104.615 82.4376C105.835 83.7971 106.446 85.4164 106.446 87.2956C106.446 88.855 105.919 90.1125 105.155 91.494C104.315 92.7135 103.973 93.4133 102.372 93.8131L108.386 101.06H100.713L96.2708 94.1629H95.8206V101.06ZM99.1221 84.7767H95.8206V89.8446H99.1221C99.8826 89.8446 100.443 89.5947 100.803 89.0949C101.183 88.5951 101.373 87.9954 101.373 87.2956C101.373 86.596 101.183 86.0062 100.803 85.5264C100.443 85.0266 99.8826 84.7767 99.1221 84.7767Z" fill="#FBB9FF"/>
<path d="M89.7694 97.1337C90.3658 96.0674 90.8083 94.7747 90.8083 94.1211L90.9625 101.06H89.729V97.2868C89.729 97.2331 89.7432 97.1805 89.7694 97.1337Z" fill="#FBB9FF"/>
</g>
<defs>
<filter id="filter0_f" x="36" y="114" width="111" height="56.1557" filterUnits="userSpaceOnUse" color-interpolation-filters="sRGB">
<feFlood flood-opacity="0" result="BackgroundImageFix"/>
<feBlend mode="normal" in="SourceGraphic" in2="BackgroundImageFix" result="shape"/>
<feGaussianBlur stdDeviation="10" result="effect1_foregroundBlur"/>
</filter>
<filter id="filter1_f" x="0.233398" y="0" width="180.841" height="180.841" filterUnits="userSpaceOnUse" color-interpolation-filters="sRGB">
<feFlood flood-opacity="0" result="BackgroundImageFix"/>
<feBlend mode="normal" in="SourceGraphic" in2="BackgroundImageFix" result="shape"/>
<feGaussianBlur stdDeviation="20" result="effect1_foregroundBlur"/>
</filter>
<clipPath id="clip0">
<rect x="55.3442" y="80.0898" width="70.3114" height="20.9701" fill="white"/>
</clipPath>
</defs>
</svg>
