<svg width="27" height="28" viewBox="0 0 27 28" fill="none" xmlns="http://www.w3.org/2000/svg">
<path fill-rule="evenodd" clip-rule="evenodd" d="M13.5645 2.99023C16.9529 2.99023 17.3544 3.00345 18.6926 3.06714C19.93 3.12601 20.602 3.3417 21.0491 3.52254C21.6415 3.76226 22.0643 4.04884 22.5085 4.51086C22.9521 4.97347 23.2272 5.41386 23.4574 6.03088C23.631 6.4965 23.8381 7.19643 23.8946 8.48514C23.9558 9.87899 23.9685 10.2971 23.9685 13.8262C23.9685 17.3553 23.9558 17.7735 23.8946 19.1673C23.8381 20.4561 23.631 21.156 23.4574 21.6216C23.2272 22.2386 22.9521 22.679 22.5085 23.1416C22.0643 23.6036 21.6415 23.8902 21.0491 24.1299C20.602 24.3114 19.93 24.5265 18.6926 24.5853C17.3544 24.649 16.9535 24.6622 13.5645 24.6622C10.1755 24.6622 9.77462 24.649 8.43634 24.5853C7.19901 24.5265 6.52699 24.3114 6.07993 24.1299C5.48751 23.8902 5.06469 23.6036 4.62052 23.1416C4.17692 22.679 3.90177 22.2386 3.67161 21.6216C3.4974 21.156 3.29089 20.4561 3.23436 19.1673C3.17321 17.7735 3.16052 17.3553 3.16052 13.8262C3.16052 10.2971 3.17321 9.87899 3.23436 8.48514C3.29089 7.19643 3.4974 6.4965 3.67161 6.03088C3.90177 5.41386 4.17692 4.97347 4.62052 4.51086C5.06469 4.04884 5.48751 3.76226 6.07993 3.52254C6.52699 3.3417 7.19901 3.12601 8.43634 3.06714C9.77462 3.00345 10.1761 2.99023 13.5645 2.99023ZM13.5646 0.607422C10.118 0.607422 9.6859 0.622442 8.33205 0.686727C6.98165 0.751013 6.05928 0.97451 5.2517 1.30134C4.417 1.63899 3.70921 2.09079 3.00373 2.82557C2.29825 3.56095 1.86447 4.29753 1.54028 5.16688C1.22648 6.008 1.01189 6.96868 0.950167 8.37515C0.888445 9.78522 0.874023 10.2352 0.874023 13.825C0.874023 17.4148 0.888445 17.8648 0.950167 19.2748C1.01189 20.6813 1.22648 21.642 1.54028 22.4831C1.86447 23.3525 2.29825 24.089 3.00373 24.8238C3.70921 25.5592 4.417 26.011 5.2517 26.3486C6.05928 26.6755 6.98165 26.899 8.33205 26.9633C9.6859 27.0275 10.118 27.0426 13.5646 27.0426C17.0113 27.0426 17.4433 27.0275 18.7966 26.9633C20.1476 26.899 21.0699 26.6755 21.8775 26.3486C22.7122 26.011 23.4194 25.5592 24.1249 24.8238C24.831 24.089 25.2647 23.3525 25.5889 22.4831C25.9027 21.642 26.1173 20.6813 26.179 19.2748C26.2408 17.8648 26.2552 17.4148 26.2552 13.825C26.2552 10.2352 26.2408 9.78522 26.179 8.37515C26.1173 6.96868 25.9027 6.008 25.5889 5.16688C25.2647 4.29753 24.831 3.56095 24.1249 2.82557C23.4194 2.09079 22.7122 1.63899 21.8775 1.30134C21.0699 0.97451 20.1476 0.751013 18.7966 0.686727C17.4433 0.622442 17.0113 0.607422 13.5646 0.607422ZM13.5894 7.06055C9.98761 7.06055 7.06763 10.1018 7.06763 13.8532C7.06763 17.604 9.98761 20.6452 13.5894 20.6452C17.1907 20.6452 20.1107 17.604 20.1107 13.8532C20.1107 10.1018 17.1907 7.06055 13.5894 7.06055ZM13.5893 18.2613C11.2513 18.2613 9.35583 16.2877 9.35583 13.8526C9.35583 11.4176 11.2513 9.44336 13.5893 9.44336C15.9272 9.44336 17.8222 11.4176 17.8222 13.8526C17.8222 16.2877 15.9272 18.2613 13.5893 18.2613ZM21.823 6.74341C21.823 7.61277 21.147 8.31691 20.3123 8.31691C19.4782 8.31691 18.8015 7.61277 18.8015 6.74341C18.8015 5.87466 19.4782 5.16992 20.3123 5.16992C21.147 5.16992 21.823 5.87466 21.823 6.74341Z" fill="#3095F2"/>
</svg>
