<svg width="29" height="19" viewBox="0 0 29 19" fill="none" xmlns="http://www.w3.org/2000/svg">
<path d="M26.0222 3.34191H18.8022V1.54851H26.0228V3.34191H26.0222ZM13.9956 10.6961C14.4615 11.4176 14.6943 12.2938 14.6943 13.3224C14.6943 14.3861 14.4318 15.3403 13.8978 16.1833C13.5581 16.741 13.1363 17.2122 12.6295 17.5915C12.0587 18.0302 11.383 18.331 10.6061 18.4917C9.82679 18.6527 8.98328 18.734 8.07466 18.734H0V0.804688H8.65884C10.8414 0.840194 12.3887 1.47254 13.3025 2.71439C13.8507 3.47603 14.1224 4.38995 14.1224 5.45226C14.1224 6.54839 13.8474 7.42547 13.2938 8.09184C12.9858 8.46546 12.5309 8.80532 11.9286 9.11208C12.8409 9.44604 13.533 9.97194 13.9956 10.6961ZM4.13494 7.87331H7.92888C8.70855 7.87331 9.33882 7.72513 9.82425 7.42888C10.3093 7.13311 10.5514 6.60735 10.5514 5.85247C10.5514 5.01848 10.2309 4.46491 9.58837 4.19848C9.03608 4.01338 8.32943 3.91805 7.47199 3.91805H4.13494V7.87331ZM10.9167 13.0663C10.9167 12.1349 10.536 11.4911 9.77628 11.1456C9.35141 10.9492 8.75196 10.8489 7.98335 10.8417H4.13494V15.6198H7.92379C8.70218 15.6198 9.30465 15.5179 9.73944 15.3053C10.5235 14.9145 10.9167 14.1706 10.9167 13.0663ZM28.7011 10.1495C28.7883 10.7361 28.8277 11.5871 28.8117 12.6996H19.461C19.5126 13.9902 19.9581 14.8928 20.8032 15.4093C21.3128 15.7333 21.9307 15.8914 22.6542 15.8914C23.4171 15.8914 24.0389 15.6986 24.5176 15.3021C24.7784 15.0919 25.0085 14.7953 25.2074 14.421H28.6347C28.545 15.1833 28.1323 15.9565 27.3907 16.7422C26.2417 17.991 24.6302 18.6172 22.5607 18.6172C20.851 18.6172 19.3443 18.0891 18.0364 17.0367C16.733 15.9806 16.0783 14.2679 16.0783 11.892C16.0783 9.66397 16.666 7.95866 17.8454 6.77168C19.0292 5.58249 20.5569 4.99061 22.44 4.99061C23.5562 4.99061 24.5624 5.19011 25.46 5.5912C26.3548 5.99269 27.0944 6.62456 27.6768 7.49299C28.2039 8.25779 28.5429 9.14209 28.7011 10.1495ZM25.3275 10.484C25.2646 9.59155 24.9667 8.91606 24.4301 8.45441C23.898 7.99149 23.2332 7.75909 22.44 7.75909C21.5768 7.75909 20.9102 8.0075 20.4365 8.49574C19.9597 8.98298 19.663 9.64541 19.5414 10.4841H25.3275V10.484Z" fill="#3095F2"/>
</svg>
