<svg width="27" height="26" viewBox="0 0 27 26" fill="none" xmlns="http://www.w3.org/2000/svg">
<path d="M13.2863 0.0429688C6.17187 0.0435078 0.405273 5.81047 0.405273 12.9251C0.405273 20.0384 6.17187 25.806 13.2863 25.806C20.4007 25.806 26.1676 20.0384 26.1683 12.9251C26.1676 5.81047 20.4007 0.0435078 13.2863 0.0429688ZM21.179 6.72193C22.4358 8.31791 23.2227 10.2941 23.322 12.4522C21.8678 12.1436 20.4938 11.9934 19.2129 11.9934V11.9931H19.2034C18.1722 11.9931 17.2043 12.0867 16.2921 12.2485C16.0705 11.7051 15.8457 11.1832 15.6193 10.6834C17.6508 9.79235 19.6007 8.5236 21.179 6.72193ZM13.2863 2.87494C15.6568 2.87494 17.8315 3.70368 19.5532 5.08337C18.2357 6.66072 16.4966 7.80309 14.618 8.60973C13.298 6.05719 12.0225 4.23114 11.1505 3.11477C11.8407 2.96161 12.5531 2.87494 13.2863 2.87494ZM8.84733 3.92255C9.5449 4.7465 10.9415 6.55883 12.4332 9.3884C9.39947 10.2915 6.34456 10.5036 4.49617 10.5031C4.44346 10.5031 4.39135 10.5031 4.3402 10.5026H4.33852C4.02723 10.5026 3.75955 10.4977 3.53607 10.4908C4.25718 7.60531 6.23399 5.21556 8.84733 3.92255ZM3.2364 12.9251C3.2364 12.8778 3.23808 12.8298 3.2409 12.7803C3.52787 12.7909 3.89588 12.8 4.33882 12.8H4.34134C6.36151 12.7868 9.88871 12.618 13.4633 11.4895C13.6581 11.9156 13.851 12.3592 14.0417 12.8197C11.6546 13.6181 9.77449 14.89 8.3839 16.1567C7.04518 17.376 6.14073 18.5837 5.61225 19.39C4.13343 17.6391 3.23718 15.389 3.2364 12.9251ZM13.2863 22.9754C11.0498 22.9754 8.98839 22.2357 7.3161 20.9946C7.67154 20.4092 8.43362 19.2854 9.64715 18.1241C10.8957 16.9277 12.6193 15.696 14.8696 14.963C15.6345 17.1072 16.3266 19.5583 16.8539 22.3173C15.7432 22.7403 14.5431 22.9754 13.2863 22.9754ZM18.9743 21.1908C18.4643 18.6955 17.8233 16.4454 17.1195 14.4374C17.7722 14.3438 18.4573 14.291 19.1805 14.291H19.2065H19.2082H19.2099C20.4086 14.291 21.7258 14.4399 23.1543 14.7645C22.6598 17.4219 21.1206 19.7105 18.9743 21.1908Z" fill="#3095F2"/>
</svg>
