<svg width="23" height="23" viewBox="0 0 23 23" fill="none" xmlns="http://www.w3.org/2000/svg">
<g clip-path="url(#clip0)">
<path d="M23 5.34021H21.7309C21.4004 5.34021 20.5357 5.69919 20.5357 6.00479V17.1025C20.5357 17.4089 21.4004 17.66 21.7309 17.66H23V20.124H14.7857V17.66H16.4289V6.16113H16.143L12.1888 20.1239H9.12727L5.22422 6.16113H4.92861V17.66H6.57116V20.1239H0V17.66H0.911377C1.26917 17.66 1.6426 17.4089 1.6426 17.1025V6.00479C1.6426 5.69914 1.26922 5.34021 0.911377 5.34021H0V2.87598H8.51603L11.2966 12.7319H11.3714L14.1794 2.87598H23V5.34021Z" fill="#3095F2"/>
</g>
<defs>
<clipPath id="clip0">
<rect width="23" height="23" fill="white"/>
</clipPath>
</defs>
</svg>
