<?xml version="1.0" standalone="no"?>
<!DOCTYPE svg PUBLIC "-//W3C//DTD SVG 20010904//EN"
 "http://www.w3.org/TR/2001/REC-SVG-20010904/DTD/svg10.dtd">
<svg version="1.0" xmlns="http://www.w3.org/2000/svg"
 width="1280.000000pt" height="248.000000pt" viewBox="0 0 1280.000000 248.000000"
 preserveAspectRatio="xMidYMid meet">

<g transform="translate(0.000000,248.000000) scale(0.100000,-0.100000)"
fill="#000000" stroke="none">
<path d="M11285 2469 c-598 -23 -1452 -90 -1845 -144 -746 -103 -1339 -247
-2370 -575 -1012 -322 -1755 -472 -2755 -554 -699 -58 -1985 -97 -2530 -77
-304 11 -647 31 -895 52 -165 14 -688 68 -770 79 -36 5 -77 10 -92 10 l-28 0
0 -630 0 -630 6400 0 6400 0 0 1240 0 1240 -657 -2 c-362 0 -748 -5 -858 -9z"/>
</g>
</svg>
