<svg width="24" height="25" viewBox="0 0 24 25" fill="none" xmlns="http://www.w3.org/2000/svg">
<path fill-rule="evenodd" clip-rule="evenodd" d="M19 11.1553H13V5.15527C13 4.60227 12.552 4.15527 12 4.15527C11.448 4.15527 11 4.60227 11 5.15527V11.1553H5C4.448 11.1553 4 11.6023 4 12.1553C4 12.7083 4.448 13.1553 5 13.1553H11V19.1553C11 19.7083 11.448 20.1553 12 20.1553C12.552 20.1553 13 19.7083 13 19.1553V13.1553H19C19.552 13.1553 20 12.7083 20 12.1553C20 11.6023 19.552 11.1553 19 11.1553Z" fill="#333333"/>
<mask id="mask0" mask-type="alpha" maskUnits="userSpaceOnUse" x="4" y="4" width="16" height="17">
<path fill-rule="evenodd" clip-rule="evenodd" d="M19 11.1553H13V5.15527C13 4.60227 12.552 4.15527 12 4.15527C11.448 4.15527 11 4.60227 11 5.15527V11.1553H5C4.448 11.1553 4 11.6023 4 12.1553C4 12.7083 4.448 13.1553 5 13.1553H11V19.1553C11 19.7083 11.448 20.1553 12 20.1553C12.552 20.1553 13 19.7083 13 19.1553V13.1553H19C19.552 13.1553 20 12.7083 20 12.1553C20 11.6023 19.552 11.1553 19 11.1553Z" fill="white"/>
</mask>
<g mask="url(#mask0)">
<rect y="0.155273" width="24" height="24" fill="#333333"/>
</g>
</svg>
