<?xml version="1.0" standalone="no"?>
<!DOCTYPE svg PUBLIC "-//W3C//DTD SVG 20010904//EN"
 "http://www.w3.org/TR/2001/REC-SVG-20010904/DTD/svg10.dtd">
<svg version="1.0" xmlns="http://www.w3.org/2000/svg"
 width="1440.000000pt" height="260.000000pt" viewBox="0 0 1440.000000 260.000000"
 preserveAspectRatio="xMidYMid meet">

<g transform="translate(0.000000,260.000000) scale(0.100000,-0.100000)"
fill="#000000" stroke="none">
<path d="M13385 2593 c-826 -11 -1841 -78 -2555 -169 -540 -68 -1146 -196
-1745 -369 -287 -83 -546 -168 -1005 -330 -737 -261 -1154 -384 -1720 -509
-787 -173 -1377 -237 -2800 -303 -469 -22 -1596 -25 -1880 -5 -537 37 -1060
87 -1508 145 l-172 23 0 -538 0 -538 7200 0 7200 0 0 1300 0 1300 -422 -2
c-233 -1 -499 -4 -593 -5z"/>
</g>
</svg>
